Stealth*2005*[BluRay][1080p][ENG, POL]

General information:
Country: USA
Release: 27 July 2005
Genre: Action, Adventure, Sci-Fi, Thriller 
Director: Rob Cohen
Screenplay: Rob Cohen, W.D. Richter
Original Music: Randy Edelman 
Cinematography by: Dean Semler
Duration: 2h 0mn
Language: English, Polish
Subtitles: English, Polish
Rating: 6.2/10 - 2952 votes 

Cast:
Josh Lucas  ...  Lt. Ben Gannon  
Jessica Biel  ...  Lt. Kara Wade  
Jamie Foxx  ...  Lt. Henry Purcell  
Sam Shepard  ...  Capt. George Cummings  
Richard Roxburgh  ...  Dr. Keith Orbit  
Joe Morton  ...  Capt. Dick Marshfield  
Ian Bliss  ...  Lt. Aaron Shaftsbury  
Ebon Moss-Bachrach  ...  Tim  
Michael Denkha  ...  Naval Controller  
Rocky Helton  ...  Master at Arms  
Clayton Adams  ...  USS Abraham Lincoln Sailor  
Maurice Morgan  ...  USS Abraham Lincoln Sailor  
Woody Naismith  ...  USS Abraham Lincoln Sailor (as Christopher Naismith)  
Charles Ndibe  ...  USS Abraham Lincoln Sailor  
Nicholas Hammond  ...  Executive Officer  

Plot:
Deeply ensconced in a top-secret military program, three pilots struggle to bring an artificial intelligence program under control ... before it initiates the next world war.

Specifications:
General
Format                           : Matroska
Overall bit rate                 : 13.4 Mbps
Encoded date                     : UTC 2010-10-27 13:03:24

Video
Format                           : AVC
Format/Info                      : Advanced Video Codec
Format profile                   : High@L4.1
Format settings, CABAC           : Yes
Format settings, ReFrames        : 5 frames
Muxing mode                      : Container profile=Unknown@4.1
Codec ID                         : V_MPEG4/ISO/AVC
Duration                         : 2h 0mn
Bit rate                         : 11.4 Mbps
Width                            : 1 920 pixels
Height                           : 800 pixels
Display aspect ratio             : 2.40:1
Frame rate                       : 23.976 fps

Audio 1
Format                           : DTS
Format/Info                      : Digital Theater Systems
Codec ID                         : A_DTS
Bit rate mode                    : Constant
Bit rate                         : 1 510 Kbps
Channel(s)                       : 6 channels
Channel positions                : Front: L C R, Side: L R, LFE
Sampling rate                    : 48.0 KHz
Bit depth                        : 24 bits
Stream size                      : 1.27 GiB (11%)
Title                            : English

Audio 2
Format                           : AC-3
Format/Info                      : Audio Coding 3
Mode extension                   : CM (complete main)
Codec ID                         : A_AC3
Bit rate mode                    : Constant
Bit rate                         : 448 Kbps
Channel(s)                       : 6 channels
Channel positions                : Front: L C R, Side: L R, LFE
Sampling rate                    : 48.0 KHz
Stream size                      : 387 MiB (3%)
Title                            : Polish
Language                         : Polish

Text 1
Format                           : UTF-8
Codec ID                         : S_TEXT/UTF8
Codec ID/Info                    : UTF-8 Plain Text
Title                            : English

Text 2
Format                           : UTF-8
Codec ID                         : S_TEXT/UTF8
Codec ID/Info            